<svg width="40" height="40" viewBox="0 0 40 40" fill="none" xmlns="http://www.w3.org/2000/svg">
<path d="M39.7767 8.94118C39.7767 8.47059 39.2533 4.70588 38.0321 3.05882C36.462 0.705883 34.7174 0.470588 33.8451 0.470588H33.6706C28.2624 1.05185e-07 20.2373 0 20.0628 0C20.0628 0 11.8632 1.05185e-07 6.45499 0.470588H6.28053C5.40823 0.470588 3.66364 0.705883 2.09351 3.05882C0.872296 4.94118 0.348918 8.70588 0.348918 9.17647C0.348918 9.41177 0 13.6471 0 18.1176V22.1176C0 26.5882 0.348918 30.8235 0.348918 31.0588C0.348918 31.5294 0.872296 35.2941 2.09351 36.9412C3.48918 39.0588 5.23378 39.2941 6.28053 39.5294C6.45499 39.5294 6.62945 39.5294 6.80391 39.5294C9.94417 40 19.5394 40 19.8883 40C19.8883 40 28.0879 40 33.4962 39.5294H33.6706C34.5429 39.2941 36.2875 39.0588 37.8576 36.9412C39.0789 35.0588 39.6022 31.2941 39.6022 30.8235C39.6022 30.5882 39.9512 26.3529 39.9512 21.8824V17.8824C40.1256 13.6471 39.7767 9.17647 39.7767 8.94118ZM26.8667 20.4706L16.3992 28C16.2247 28 16.2247 28.2353 16.0502 28.2353C15.8758 28.2353 15.7013 28.2353 15.7013 28C15.5269 27.7647 15.3524 27.5294 15.3524 27.0588V11.7647C15.3524 11.2941 15.5269 11.0588 15.7013 10.8235C15.8758 10.5882 16.2247 10.5882 16.5736 10.8235L27.0412 18.3529C27.3901 18.5882 27.5646 18.8235 27.5646 19.2941C27.5646 19.7647 27.2156 20.2353 26.8667 20.4706Z" fill="black"/>
</svg>
