<svg width="40" height="40" viewBox="0 0 40 40" fill="none" xmlns="http://www.w3.org/2000/svg">
<path d="M21.2167 19.1212V19.0669C21.2054 19.0852 21.1935 19.1036 21.1815 19.1212H21.2167Z" fill="black"/>
<path d="M34.7591 3.29285H5.04119C3.61879 3.29285 2.46521 4.41891 2.46521 5.80674V35.8725C2.46521 37.2597 3.61879 38.3857 5.04119 38.3857H34.7591C36.1837 38.3857 37.3372 37.2589 37.3372 35.8725V5.80674C37.3372 4.41821 36.1829 3.29285 34.7591 3.29285ZM13.0351 32.67H7.76816V16.824H13.0351V32.67ZM10.402 14.6593H10.3667C8.60001 14.6593 7.45701 13.4422 7.45701 11.9218C7.45701 10.3674 8.63528 9.18423 10.4366 9.18423C12.2386 9.18423 13.347 10.3674 13.3823 11.9218C13.3823 13.4422 12.2378 14.6593 10.402 14.6593ZM32.0279 32.67H26.761V24.1907C26.761 22.0613 25.999 20.6079 24.0933 20.6079C22.6384 20.6079 21.772 21.5879 21.3903 22.5347C21.2513 22.8727 21.2174 23.3454 21.2174 23.8195V32.6693H15.9505C15.9505 32.6693 16.0196 18.3085 15.9505 16.8233H21.2174V19.0662C21.9173 17.9867 23.169 16.4493 25.9651 16.4493C29.4301 16.4493 32.0286 18.7149 32.0286 23.5825L32.0279 32.67Z" fill="black"/>
</svg>
