<svg width="196" height="235" viewBox="0 0 196 235" fill="none" xmlns="http://www.w3.org/2000/svg">
<path fill-rule="evenodd" clip-rule="evenodd" d="M86.5999 77.9411C92.7546 78.2449 102.338 80.8845 102.817 82.5715C103.565 85.2057 101.957 95.0816 104.646 100.401C105.792 102.669 110.145 102.465 111.831 103.204C117.474 105.675 134.18 110.361 137.624 116.262C139.004 118.626 147.484 147.959 151.99 162.924C152.498 164.611 153.072 166.172 153.696 167.617L153.925 166.494C155.762 157.449 156.681 151.974 156.681 150.067C156.681 147.089 154.306 134.522 156.681 131.326C159.032 128.162 164.698 125.576 167.248 125.524L167.324 125.523C168.998 125.523 170.45 125 171.681 123.953L173.486 123.045C182.668 118.436 188.032 115.908 189.579 115.461C192.047 114.747 196.248 116.268 194.148 118.551C192.747 120.073 189.228 122.766 183.591 126.63L181.465 128.32L181.722 128.454C184.469 129.901 186.084 131.118 186.568 132.107C187.066 133.126 186.827 134.332 185.851 135.724L185.999 135.868C187.234 137.081 187.851 137.894 187.851 138.308V140.331C189.08 142.131 189.387 143.632 188.772 144.834C188.158 146.036 187.184 147.078 185.851 147.959C184.868 150.545 183.698 152.386 182.34 153.481C180.982 154.576 178.635 155.488 175.299 156.216L172.281 163.436L169.835 173.579L168.602 184.898L168.96 185.157C170.619 186.366 171.681 187.261 171.681 188.187C171.681 189.629 164.989 223.547 154.577 225.065C152.325 225.393 140.647 223.783 136.813 220.662L136.869 220.999C137.771 226.451 137.581 229.282 136.297 229.492C120.518 232.08 75.7042 232.88 1.85631 231.891C1.41694 192.681 3.40365 166.568 7.81642 153.551C19.1023 120.261 31.5456 108.89 35.8988 107.916C39.7121 107.063 52.935 101.798 56.6314 100.401C59.0442 99.4889 59.5611 96.7541 62.3107 96.7541L62.533 96.7553C65.192 96.782 67.55 97.2577 68.8749 95.8896C72.3516 92.2994 71.3797 87.3298 72.822 82.5715C73.6167 79.9497 79.0473 77.5682 86.5999 77.9411Z" fill="#D08B5B"/>
<path d="M62.3107 96.7542H62.533C63.1901 96.7619 63.8289 96.7959 64.4383 96.8228L63.1544 101.199L63.1266 101.659C62.293 116.748 69.679 123.971 85.2848 123.329C100.891 122.686 108.653 117.748 108.572 108.515L108.567 108.233L108.568 102.487L108.813 102.535C109.998 102.756 111.139 102.901 111.831 103.204C117.474 105.675 134.18 110.361 137.624 116.262C139.004 118.626 147.484 147.959 151.99 162.924C152.155 163.471 152.326 164.005 152.504 164.525L152.504 167.483L152.455 167.662C150.876 173.571 152.979 178.403 158.763 182.156C162.864 184.816 167.075 186.543 171.396 187.337C171.582 187.624 171.681 187.904 171.681 188.187C171.681 189.63 164.989 223.547 154.577 225.065C152.325 225.393 140.647 223.783 136.813 220.662L136.869 220.999L136.922 221.323C137.763 226.563 137.555 229.286 136.297 229.492C120.518 232.08 75.7042 232.88 1.85631 231.891C1.41694 192.681 3.40365 166.568 7.81642 153.551C19.1023 120.261 31.5456 108.89 35.8988 107.916C39.7121 107.063 52.935 101.798 56.6314 100.401C59.0442 99.489 59.5611 96.7542 62.3107 96.7542Z" fill="#BA98DE"/>
<path fill-rule="evenodd" clip-rule="evenodd" d="M69.6909 87.342C70.0521 86.6259 71.0111 86.7187 71.6438 87.0435C73.5417 88.4315 71.556 91.1217 71.031 92.8155C69.6805 96.1007 67.335 99.3114 64.0971 100.847C64.3655 104.113 64.6695 107.371 64.7817 110.647C68.9214 115.784 75.9011 117.659 82.0969 119.101C91.8281 121.793 102.811 116.277 106.095 106.655C102.357 104.53 101.147 98.9666 102.263 95.0854C102.36 94.8128 102.782 94.6923 102.932 94.9966C103.956 97.1027 103.819 99.6721 104.983 101.753C116.152 102.823 130.567 107.039 137.884 116.075C141.127 120.595 142.412 126.475 144.009 131.715C147.417 142.516 150.132 153.536 153.474 164.349L153.868 162.303C154.948 156.667 155.929 150.955 155.2 145.224L155.186 144.95C154.948 140.389 153.522 131.914 157.057 128.836C160.255 126.391 164.888 124.426 168.901 125.553C176.042 122.374 182.206 117.021 189.812 114.935C192.153 114.454 195.52 115.024 194.967 118.201C193.434 123.757 187.012 125.914 182.622 128.779C185.436 129.542 188.867 132.965 186.668 135.95C186.649 136.003 186.632 136.043 186.615 136.075C188.398 136.865 188.648 138.852 188.211 140.555C188.166 141.005 188.048 140.619 188.312 141.027C190.324 142.925 189.435 148.215 186.404 148.394C186.603 150.901 184.993 153.336 182.954 154.703C180.757 156.176 177.58 156.24 175.76 158.256C171.489 165.79 170.016 174.685 169.55 183.312C172.366 184.367 174.892 187.519 172.334 190.194C172.283 190.2 172.233 190.206 172.182 190.21C170.699 194.169 170.126 198.389 169.342 202.523C168.135 209.578 164.991 216.055 160.976 221.932C156.333 229.711 143.847 228.478 137.557 223.457C137.582 224.775 137.799 226.084 137.377 227.357C136.755 228.73 135.237 228.137 135.087 226.784C131.762 228.655 130.979 222.48 134.675 223.459C134.391 218.995 134.226 214.525 134.092 210.054C129.908 211.409 129.727 204.463 134.008 205.852L134.003 203.932C133.971 189.209 134.134 174.435 136.076 159.828C136.256 158.736 136.56 157.679 136.737 156.593C136.756 156.48 136.932 156.512 136.932 156.62C137.233 177.07 135.897 197.564 137.291 218.022C138.451 218.375 138.914 219.707 139.773 220.484C141.681 222.245 144.278 223.103 146.819 223.402C153.932 224.4 157.003 222.227 160.171 216.041C158.742 216.996 156.812 215.31 157.683 213.798L157.71 213.752C158.614 212.15 161.168 213.11 160.845 214.904C164.03 209.802 165.697 204.049 166.928 198.212L167.094 197.514C167.693 195.036 168.469 192.196 169.906 189.954C161.142 187.72 152.57 180.912 151.198 171.572C148.973 178.565 145.959 185.401 143.086 192.203C142.199 194.568 141.829 197.11 140.557 199.304C140.261 199.812 139.511 199.681 139.344 199.146C138.2 194.03 141.666 189.164 143.466 184.558C144.935 181.955 149.153 170.07 151.769 170.041C148.83 157.155 144.91 144.366 141.178 131.641C137.568 114.459 130.212 111.145 114.63 105.735C117.44 120.064 130.273 133.934 123.444 148.963L123.278 149.353C122.58 151.01 122 152.679 122.487 154.498C122.961 156.263 124.038 157.795 124.9 159.382C129.719 168.348 126.402 178.819 124.539 188.156C122.185 199.105 119.86 210.065 117.427 220.997C116.948 223.178 116.637 225.425 115.913 227.539C115.539 228.629 113.673 228.526 113.794 227.253C114.024 224.785 114.717 222.377 115.224 219.953C118.253 204.258 122.352 188.748 124.958 172.985C126.635 161.316 120.035 159.523 120.281 151.983C121.178 148.127 123.553 144.686 123.417 140.576C123.944 127.998 114.786 117.62 113.655 105.386L111.658 104.674C110.66 104.317 109.664 103.956 108.67 103.588C113.9 140.178 112.312 177.567 109.698 214.338C109.163 216.034 109.672 233.382 107.432 232.33C107.319 232.992 106.968 233.643 106.203 233.64C99.2584 233.704 92.3119 233.814 85.3676 233.896C82.0272 233.589 77.436 234.864 74.5948 232.936C71.3145 232 70.9374 217.617 70.0604 214.45L69.7185 212.146C64.1444 174.502 59.1562 136.083 63.1629 98.0663C57.5884 98.2806 56.4379 104.299 56.0244 108.681C54.9907 118.353 48.7439 126.683 48.4443 136.466C48.419 138.839 48.8669 141.138 49.8153 143.318C52.3314 148.657 56.6831 154.829 53.4307 160.792C49.5841 165.434 49.9171 166.656 51.3286 172.393C55.2998 191.358 61.8947 209.59 68.1683 227.875C66.8052 234.982 58.6063 208.598 57.835 206.609C54.2056 208.434 52.2231 202.376 56.3859 201.944C53.7121 192.991 51.2514 183.971 49.2028 174.851L49.1485 174.594C48.2436 170.381 46.4636 165.447 49.4694 161.709C57.22 153.868 44.3489 145.104 45.9725 135.605C44.5705 136.645 42.4483 135.551 42.4802 133.805C42.4167 131.838 45.0571 130.831 46.3276 132.331C47.634 124.625 52.1789 117.897 53.5543 110.213L53.6164 109.852C54.0824 107.137 54.2138 104.279 55.5472 101.804C53.7322 102.984 51.7993 103.937 49.8112 104.778C53.3658 107.748 46.4825 110.459 47.0521 105.871C27.5588 111.512 23.1529 119.38 15.9957 137.448C17.3326 136.149 19.6228 137.831 18.8225 139.488C18.1841 141.234 15.3989 140.723 15.4 138.862L15.0738 139.641C10.7338 150.022 6.78365 160.655 4.79856 171.765C8.69264 171.215 7.70116 177.441 4.17299 175.686C2.75708 185.567 2.73468 195.587 2.90771 205.547C6.19229 203.825 6.29116 209.679 2.9394 208.01C3.06194 216.172 3.24152 224.335 3.37673 232.497C3.40419 234.234 0.725318 234.226 0.683065 232.497C0.370177 219.955 -0.200033 207.391 0.0710231 194.845C-0.183977 173.07 6.07335 152.083 15.3966 132.578C23.646 110.119 35.0409 107.565 56.0056 101.035C57.9408 98.161 62.0753 95.443 65.4486 97.2475C67.3359 94.1999 68.2944 90.5891 69.6909 87.342ZM33.7718 165.617C33.85 165.34 34.2451 165.41 34.2577 165.683C34.4331 169.206 34.2767 172.752 34.0359 176.29C33.8899 178.45 33.7105 180.608 33.5584 182.754C33.1549 188.413 32.8296 194.08 32.5824 199.75C32.669 199.714 32.7577 199.682 32.8507 199.657C33.2775 199.541 33.7044 199.541 34.131 199.657C34.5115 199.764 34.8442 199.949 35.1308 200.218L35.1915 200.277C35.426 200.494 35.5929 200.752 35.6901 201.05C35.8286 201.315 35.8986 201.599 35.8985 201.902L35.897 201.978C35.8951 202.413 35.7873 202.817 35.5676 203.193C35.3542 203.555 35.0669 203.842 34.7056 204.057C34.3296 204.275 33.9258 204.383 33.4908 204.385C33.4444 204.389 33.3977 204.394 33.3514 204.396C33.0279 204.408 32.726 204.341 32.447 204.195L32.4049 204.182C32.2993 207.059 32.2127 209.937 32.1493 212.816C32.0922 215.325 32.0162 217.833 31.9655 220.342L31.9419 221.597L31.896 224.37C31.881 225.511 31.8883 226.603 31.5007 227.679L31.4542 227.803C31.1753 228.521 30.9579 229.521 30.2118 229.921C29.6162 230.239 28.8134 230.121 28.4711 229.5C28.1838 228.98 28.4329 228.232 28.8577 227.881C28.8493 227.858 28.8366 227.837 28.826 227.813C28.7606 227.623 28.661 227.444 28.6021 227.251C28.416 226.643 28.4669 225.994 28.4648 225.362C28.4648 224.246 28.5026 223.13 28.5324 222.016C28.5979 219.644 28.6739 217.275 28.7667 214.906C29.0807 206.958 29.672 199.011 30.3492 191.085L30.579 188.41C30.8852 184.853 31.2021 181.292 31.6507 177.753C31.6716 177.584 31.6929 177.415 31.7162 177.246C31.4753 177.125 31.2514 176.958 31.0737 176.772C30.362 176.025 29.9302 174.907 29.5254 173.944L29.4324 173.725C28.9929 172.697 28.5873 171.658 28.3782 170.554L28.3581 170.453C28.2627 169.983 28.0744 169.15 28.5725 168.923C28.8324 168.804 28.997 168.889 29.0817 169.149C29.0925 169.183 29.0836 169.221 29.0648 169.25C29.2697 169.565 29.5908 169.859 29.7937 170.151L30.4878 171.144L30.831 171.643C31.2662 172.283 31.731 172.896 32.2106 173.501C32.5885 170.846 33.0514 168.202 33.7718 165.617ZM62.238 224.772C63.1063 224.091 64.5197 224.461 64.5197 225.717C64.5197 226.978 63.1042 227.342 62.238 226.661L62.1949 226.63L62.1535 226.596C61.6818 226.227 61.666 225.267 62.1179 224.867L62.1535 224.838C62.1808 224.814 62.2085 224.793 62.238 224.772ZM24.4865 222.32C24.8795 222.32 25.245 222.42 25.5851 222.618C25.733 222.73 25.8788 222.844 26.0267 222.959C26.2971 223.229 26.483 223.551 26.5865 223.92L26.6649 224.499C26.6753 224.799 26.614 225.078 26.4767 225.339C26.388 225.609 26.238 225.843 26.0267 226.04C25.8281 226.254 25.5957 226.404 25.3255 226.49C25.0871 226.616 24.8329 226.68 24.5611 226.68L24.4865 226.678C24.0917 226.678 23.726 226.579 23.3858 226.38C23.238 226.268 23.0922 226.154 22.9443 226.04C22.676 225.77 22.488 225.448 22.3846 225.078C22.3591 224.886 22.3339 224.692 22.3063 224.499C22.2959 224.199 22.3591 223.92 22.4943 223.66C22.583 223.39 22.733 223.155 22.9443 222.959C23.1431 222.745 23.3753 222.595 23.6457 222.508C23.8839 222.383 24.1399 222.319 24.4119 222.319L24.4865 222.32ZM123.309 218.3L123.863 218.374C124.393 218.495 124.82 218.886 125.105 219.332C125.257 219.571 125.339 219.829 125.352 220.105C125.413 220.38 125.401 220.657 125.314 220.934C125.251 221.204 125.126 221.441 124.942 221.642C124.879 221.741 124.805 221.832 124.721 221.912C124.547 222.202 124.285 222.392 124.015 222.587C123.787 222.733 123.539 222.811 123.273 222.823C123.098 222.87 122.92 222.87 122.743 222.823C122.479 222.811 122.232 222.733 122.003 222.587C121.868 222.483 121.733 222.377 121.6 222.274C121.482 222.137 121.372 221.995 121.268 221.847C121.199 221.684 121.131 221.523 121.063 221.363C120.939 220.976 121 220.634 121.068 220.247C121.078 220.182 121.095 220.122 121.118 220.059L121.164 219.936C121.286 219.615 121.351 219.506 121.566 219.226L121.648 219.116C121.689 219.062 121.731 219.008 121.78 218.96C121.915 218.82 122.107 218.704 122.259 218.584C122.584 218.396 122.935 218.303 123.309 218.3ZM51.6513 216.948C51.9577 216.95 52.2452 217.026 52.5112 217.18L52.8577 217.449C53.0689 217.662 53.2147 217.911 53.2971 218.201C53.3161 218.353 53.3375 218.506 53.3584 218.656C53.3668 218.89 53.3184 219.11 53.2105 219.315C53.1431 219.526 53.0246 219.708 52.8577 219.864C52.7037 220.029 52.5196 220.148 52.3084 220.217C52.124 220.314 51.9256 220.364 51.7149 220.365L51.6513 220.363C51.3429 220.363 51.0556 220.285 50.7894 220.131L50.4429 219.864C50.2316 219.651 50.0858 219.4 50.0034 219.11C49.9844 218.958 49.9633 218.808 49.9422 218.656C49.9337 218.421 49.9823 218.201 50.0901 217.998C50.1598 217.787 50.276 217.603 50.4429 217.449C50.5971 217.282 50.7809 217.163 50.9922 217.096C51.1766 216.999 51.3713 216.95 51.5809 216.947L51.6513 216.948ZM37.638 216.248C38.0794 216.244 38.5275 216.369 38.8887 216.624C39.2394 216.874 39.5054 217.142 39.6768 217.546C39.7232 217.656 39.7695 217.764 39.8099 217.874C39.9916 218.358 40.0254 218.844 39.774 219.317C39.531 219.776 39.0071 219.976 38.5378 220.114C38.1409 220.232 37.6909 220.251 37.2958 220.11C37.0993 220.04 36.9071 219.966 36.7296 219.858C36.3979 219.653 36.2183 219.41 35.9965 219.11C35.8232 218.814 35.7366 218.493 35.7366 218.15C35.7366 217.806 35.8232 217.487 35.9965 217.189C36.3364 216.608 36.9662 216.252 37.638 216.248ZM15.2436 216.656C15.8015 216.656 16.2915 216.914 16.6276 217.349C16.9675 217.791 17.0922 218.341 16.9422 218.888C16.7837 219.467 16.3044 219.974 15.7105 220.12C15.2713 220.228 14.9119 220.224 14.4746 220.15C14.1049 220.086 13.822 219.866 13.5387 219.638C13.2154 219.374 13.1161 218.892 13.1689 218.503C13.2196 218.115 13.3994 217.861 13.672 217.63L13.6739 217.624L13.5725 217.702C13.6107 217.669 13.6485 217.633 13.6868 217.597C13.6992 217.576 13.7098 217.552 13.7203 217.529C13.8767 217.263 14.088 217.054 14.352 216.897C14.6288 216.736 14.9246 216.656 15.2436 216.656ZM145.298 210.254C145.604 210.172 145.913 210.172 146.219 210.254C146.445 210.307 146.641 210.411 146.809 210.565C146.978 210.675 147.116 210.816 147.221 210.992L147.254 211.051C147.495 211.461 147.533 211.93 147.429 212.387C147.301 212.951 146.781 213.465 146.219 213.598L146.2 213.601L146.181 213.606C145.953 213.678 145.722 213.689 145.494 213.636C145.264 213.625 145.051 213.558 144.854 213.431C144.605 213.27 144.396 213.063 144.235 212.814C144.108 212.615 144.041 212.402 144.03 212.171C143.99 212.019 143.99 211.867 144.03 211.715C144.041 211.484 144.108 211.271 144.235 211.072L144.505 210.723L144.533 210.7C144.749 210.485 145.004 210.337 145.298 210.254ZM124.027 199.07C126.797 199.07 126.793 203.369 124.027 203.369C121.258 203.369 121.262 199.07 124.027 199.07ZM22.623 198.527C22.9148 198.461 23.2063 198.474 23.4958 198.565C23.6711 198.639 23.8444 198.713 24.0176 198.784L24.4613 199.127C24.5437 199.197 24.5838 199.273 24.6599 199.372L24.7549 199.496C24.8924 199.68 24.8956 199.719 25.0465 200.112C25.1479 200.488 25.1479 200.864 25.0465 201.241C24.9977 201.422 24.924 201.593 24.8289 201.752C24.742 201.904 24.638 202.037 24.5209 202.16L24.4613 202.221C24.2627 202.434 24.0282 202.584 23.7578 202.673C23.5866 202.773 23.4028 202.821 23.2063 202.821C22.9148 202.887 22.623 202.874 22.3338 202.783C22.1585 202.709 21.9852 202.635 21.8118 202.563L21.3683 202.221L21.0261 201.777L20.9169 201.517L20.8063 201.255L20.7282 200.674C20.7176 200.372 20.7789 200.093 20.916 199.831C20.9688 199.646 21.062 199.484 21.197 199.348C21.2944 199.184 21.4251 199.053 21.5902 198.956C21.7252 198.82 21.888 198.727 22.0718 198.674C22.243 198.575 22.4268 198.527 22.623 198.527ZM159.613 195.456C159.844 195.447 160.059 195.496 160.258 195.601C160.327 195.625 160.395 195.654 160.461 195.688C160.716 195.838 160.919 196.041 161.069 196.295C161.192 196.489 161.259 196.698 161.27 196.924C161.316 197.128 161.311 197.334 161.256 197.538L161.238 197.599C161.192 197.766 161.122 197.92 161.029 198.061C161.02 198.078 161.01 198.095 160.997 198.11C160.856 198.334 160.668 198.518 160.435 198.656C160.177 198.803 159.901 198.879 159.601 198.882C159.003 198.882 158.487 198.558 158.173 198.061C158.128 197.992 158.103 197.903 158.071 197.831C158.044 197.763 157.999 197.677 157.976 197.599C157.896 197.299 157.896 196.999 157.976 196.698C158.029 196.478 158.128 196.286 158.278 196.123C158.398 195.94 158.557 195.794 158.754 195.688C158.997 195.546 159.259 195.47 159.537 195.457L159.613 195.456ZM42.6724 193.353C42.9649 193.273 43.2558 193.267 43.5464 193.334L43.6191 193.353C43.8513 193.408 44.0522 193.513 44.2252 193.67C44.4175 193.797 44.5719 193.964 44.6837 194.17C44.8444 194.448 44.9247 194.748 44.9266 195.069C44.9247 195.39 44.8444 195.69 44.6837 195.967C44.5252 196.236 44.3118 196.447 44.0437 196.605L43.8113 196.717C43.617 196.84 43.4099 196.906 43.1858 196.916C43.036 196.956 42.8858 196.956 42.7381 196.916C42.5858 196.916 42.4442 196.878 42.3135 196.802C42.1698 196.762 42.047 196.69 41.9414 196.584C41.7576 196.466 41.6142 196.31 41.5085 196.113L41.3372 195.709L41.2782 195.261L41.3372 194.815L41.4304 194.595C41.5147 194.293 41.667 194.031 41.8886 193.809C42.1104 193.589 42.3724 193.437 42.6724 193.353ZM147.444 189.787C147.753 189.69 148.059 189.677 148.366 189.745C148.572 189.745 148.767 189.798 148.947 189.904C149.143 189.958 149.312 190.056 149.456 190.199C149.707 190.362 149.904 190.578 150.049 190.846L150.282 191.398C150.421 191.755 150.37 192.281 150.286 192.641C150.216 192.936 150.081 193.194 149.88 193.414C149.779 193.585 149.644 193.721 149.472 193.822C149.277 194 149.051 194.127 148.795 194.202L148.725 194.221L148.699 194.228C148.695 194.23 148.691 194.23 148.687 194.23C148.685 194.232 148.68 194.232 148.678 194.232C148.577 194.257 148.473 194.272 148.366 194.276C148.059 194.344 147.753 194.331 147.444 194.234C147.263 194.158 147.079 194.08 146.895 194.002C146.739 193.883 146.584 193.763 146.428 193.642C146.308 193.486 146.187 193.329 146.067 193.175C145.898 192.911 145.807 192.624 145.794 192.317C145.739 192.112 145.739 191.909 145.794 191.704C145.794 191.495 145.847 191.303 145.951 191.123C146.044 190.836 146.202 190.588 146.428 190.379C146.584 190.258 146.739 190.138 146.895 190.02C147.079 189.941 147.263 189.863 147.444 189.787ZM12.6979 182.221C13.0167 182.134 13.3359 182.134 13.655 182.221L14.0836 182.401C14.2949 182.515 14.462 182.669 14.5888 182.866C14.7493 183.039 14.8569 183.244 14.9118 183.478C15.0366 183.8 15.0219 184.309 14.9226 184.637C14.8106 185.009 14.6374 185.304 14.369 185.583C13.9233 186.044 13.2386 186.177 12.6324 186.038C12.4653 186 12.3069 185.926 12.1632 185.835C11.705 185.552 11.3965 185.057 11.3986 184.51C11.3986 184.451 11.4028 184.391 11.4113 184.332C11.3817 184.212 11.3709 184.087 11.3754 183.956L11.4388 183.478L11.4428 183.466C11.5275 183.163 11.6796 182.901 11.9012 182.68C12.1062 182.477 12.3452 182.33 12.6183 182.242L12.6874 182.221H12.6979ZM172.118 134.762C171.541 130.029 169.371 124.936 162.753 127.716L162.261 127.9C160.624 128.52 158.715 129.335 157.718 130.768C157.032 131.755 157.264 133.667 157.169 134.819C156.738 138.564 156.969 142.304 157.419 146.034C157.999 154.775 156.162 163.832 152.504 171.776C156.165 177.701 161.064 183.228 167.747 185.697C168.03 178.961 169.348 172.347 170.751 165.774L170.807 165.487C171.368 162.523 171.649 159.48 173.595 157.015C177.554 152.716 182.998 155.149 185.603 148.242C185.056 147.965 185.358 147.018 186.018 147.2C188.303 147.606 188.674 143.369 187.11 142.348C185.481 141.354 187.121 139.52 186.427 138.196C186.041 137.626 185.206 137.607 184.828 136.949C183.825 134.53 188.843 132.979 182.942 130.251C181.734 129.821 180.384 130.088 179.166 130.083C177.374 130.251 175.95 131.514 174.311 131.911C176.096 136.533 171.593 140.984 167.53 137.292C165.318 139.383 162.845 144.149 168.221 141.927C170.852 140.171 173.117 137.9 176.171 136.818L176.235 136.798C177.369 136.427 182.33 134.015 182.084 136.102C180.226 137.897 177.161 137.875 175.009 139.332C172.025 140.712 170.117 144.057 166.545 144.011C165.722 149.013 171.396 145.969 173.508 144.59L174.094 144.272C177.075 142.661 180.1 141.169 183.575 141.149C184.534 141.143 184.53 142.622 183.575 142.635C179.046 142.663 175.359 145.496 171.565 147.602C171.191 150.521 175.465 149.243 177.087 148.812C178.788 148.573 181.519 146.733 183.007 147.705C183.589 149.201 181.028 149.09 180.136 149.544C184.207 151.5 180.64 152.732 179.549 149.726L179.229 149.835C176.502 150.751 169.891 152.638 170.678 148.018C169.68 148.46 168.463 148.724 167.361 148.479C164.611 152.547 160.225 150.973 166.6 148.2C165.163 147.531 164.684 144.95 166.064 143.99C161.045 143.683 164.771 138.416 166.848 136.661C166.652 136.463 166.462 136.26 166.285 136.056C165.087 136.626 163.828 136.973 162.482 137.096C161.194 137.212 160.907 135.018 162.178 134.838C163.541 134.646 164.796 134.282 165.996 133.597C167.814 132.812 168.435 136.188 170.255 136.307C171.248 136.504 171.919 135.633 172.118 134.762ZM129.869 178.319C130.309 178.319 130.699 178.503 131.018 178.795C131.337 179.086 131.475 179.524 131.494 179.942C131.502 180.166 131.456 180.376 131.354 180.57C131.289 180.771 131.177 180.944 131.018 181.092C130.722 181.386 130.285 181.568 129.869 181.568C129.43 181.568 129.039 181.384 128.72 181.092C128.401 180.798 128.263 180.363 128.244 179.942C128.236 179.721 128.283 179.511 128.384 179.317C128.443 179.136 128.539 178.976 128.673 178.839L128.72 178.795C129.016 178.499 129.453 178.319 129.869 178.319ZM143.184 168.296L143.255 168.297C143.627 168.299 143.971 168.392 144.292 168.578C144.432 168.686 144.571 168.792 144.709 168.9C144.964 169.157 145.139 169.459 145.237 169.808C145.336 170.172 145.336 170.537 145.237 170.901C145.203 171.11 145.125 171.313 145.002 171.489C144.82 171.791 144.58 172.034 144.275 172.213C143.96 172.397 143.62 172.488 143.255 172.49C142.89 172.488 142.549 172.397 142.234 172.213C141.93 172.034 141.689 171.791 141.51 171.489C141.385 171.313 141.307 171.11 141.273 170.901C141.174 170.537 141.174 170.172 141.273 169.808C141.363 169.484 141.521 169.201 141.748 168.955L141.801 168.9C141.987 168.699 142.207 168.557 142.463 168.475C142.687 168.357 142.928 168.297 143.184 168.296ZM41.5653 168.409C41.7218 168.367 41.8761 168.367 42.0324 168.409C42.2648 168.42 42.4822 168.489 42.6831 168.616C42.8014 168.709 42.9197 168.8 43.038 168.891L43.1412 169.015C43.3617 169.284 43.3672 169.329 43.5364 169.739C43.6063 169.967 43.6169 170.195 43.5662 170.423C43.5662 170.578 43.5261 170.721 43.4498 170.855C43.4078 171 43.3359 171.127 43.2282 171.233C43.1519 171.362 43.0507 171.465 42.9216 171.541C42.7571 171.691 42.5627 171.795 42.3387 171.848L41.8843 171.909C41.8254 171.901 41.7641 171.892 41.7049 171.886C41.6336 171.884 41.5644 171.876 41.4966 171.863L41.428 171.848L41.3655 171.831C41.2828 171.807 41.2022 171.775 41.124 171.734C40.9761 171.691 40.8472 171.617 40.7371 171.508C40.5472 171.385 40.3951 171.22 40.2852 171.015L40.2556 170.948C40.2155 170.875 40.1817 170.802 40.1561 170.721C40.0845 170.595 40.0486 170.459 40.0465 170.313C40.0045 170.119 40.0073 169.927 40.0575 169.735L40.0761 169.671L40.2387 169.284C40.3232 169.153 40.412 169.02 40.5259 168.912C40.5945 168.851 40.7622 168.72 40.8567 168.655L40.9146 168.616C41.1155 168.489 41.3331 168.42 41.5653 168.409ZM18.8267 164.666C19.6822 165.522 19.3042 167.095 18.1065 167.399L17.969 167.433C16.8113 167.726 15.7676 166.68 16.0613 165.522L16.0951 165.387C16.3993 164.188 17.9711 163.81 18.8267 164.666ZM161.103 155.612C161.094 155.493 161.246 155.451 161.322 155.521C162.341 156.434 162.989 157.529 164.225 158.237C165.468 158.947 166.748 158.89 168.043 159.348C168.482 159.505 168.484 160.093 168.043 160.247C165.592 161.103 161.289 158.201 161.103 155.612ZM45.9513 155.426C46.2241 155.341 46.4987 155.329 46.7712 155.39C46.9572 155.39 47.1302 155.436 47.2886 155.529C47.464 155.578 47.6142 155.667 47.7429 155.793C47.8973 155.885 48.0198 156.009 48.1126 156.163C48.2945 156.362 48.417 156.595 48.4802 156.861L48.552 157.408L48.4802 157.956C48.4105 158.118 48.3407 158.283 48.2731 158.446L48.0844 158.702C47.9314 158.906 47.9069 158.908 47.5358 159.184C47.2994 159.334 47.0438 159.416 46.7712 159.427C46.5893 159.478 46.4076 159.478 46.2241 159.427C46.0403 159.427 45.8668 159.38 45.7065 159.287C45.533 159.239 45.3811 159.15 45.252 159.023C45.0283 158.877 44.8529 158.685 44.7238 158.446C44.6541 158.283 44.5846 158.118 44.517 157.956L44.4429 157.408L44.517 156.861L44.521 156.844C44.6182 156.502 44.7917 156.204 45.0407 155.952L45.4508 155.635C45.6112 155.532 45.7781 155.479 45.9513 155.426ZM144.573 155.836C145.158 155.675 145.801 155.844 146.229 156.273C146.658 156.703 146.827 157.343 146.667 157.928C146.508 158.499 146.05 158.962 145.477 159.116C145.306 159.162 145.133 159.188 144.958 159.18C144.664 159.177 144.389 159.103 144.134 158.956L143.804 158.7C143.643 158.552 143.532 158.376 143.466 158.174C143.363 157.979 143.316 157.77 143.324 157.544L143.323 157.504C143.316 157.423 143.327 157.343 143.352 157.265C143.352 157.182 143.365 157.102 143.386 157.024C143.54 156.453 144.005 155.992 144.573 155.836ZM18.4127 150.113C18.6007 150.106 18.776 150.144 18.9387 150.231C19.1098 150.286 19.2556 150.379 19.3782 150.514C19.5134 150.637 19.6063 150.785 19.6613 150.954C19.7479 151.117 19.7859 151.292 19.7796 151.48C19.7796 151.727 19.7162 151.958 19.5937 152.169C19.5218 152.262 19.45 152.355 19.3782 152.446C19.2091 152.617 19.0084 152.733 18.776 152.799L18.6408 152.845C18.4422 152.917 18.2479 152.921 18.0408 152.894C17.8232 152.864 17.6223 152.805 17.4451 152.67C17.2716 152.568 17.1345 152.431 17.0331 152.258L16.9169 151.983C16.8915 151.89 16.881 151.751 16.8746 151.653C16.8746 151.638 16.8746 151.626 16.8725 151.611C16.8725 151.529 16.8979 151.328 16.9188 151.245C16.9655 151.072 17.0603 150.907 17.1683 150.768C17.2613 150.622 17.388 150.508 17.5444 150.423L17.5583 150.413L17.5739 150.402C17.6223 150.368 17.6732 150.334 17.7239 150.298C17.9352 150.176 18.1655 150.113 18.4127 150.113ZM127.509 148.612C127.847 148.612 128.162 148.699 128.454 148.868C128.464 148.872 128.475 148.876 128.483 148.881C128.762 149.045 128.984 149.267 129.149 149.546C129.318 149.836 129.402 150.149 129.402 150.483C129.402 150.818 129.318 151.129 129.149 151.419C128.984 151.698 128.762 151.92 128.483 152.085C128.475 152.091 128.464 152.095 128.454 152.099C128.162 152.268 127.847 152.353 127.509 152.355C127.173 152.353 126.859 152.268 126.567 152.099C125.997 151.765 125.639 151.142 125.639 150.483C125.639 149.823 125.997 149.199 126.567 148.868C126.859 148.699 127.173 148.612 127.509 148.612ZM39.7735 146.168L39.8311 146.167C40.055 146.158 40.2639 146.205 40.4562 146.308C40.6569 146.374 40.8323 146.486 40.9804 146.644L41.2888 146.902L41.3783 146.975C41.3931 146.987 41.4076 146.999 41.4217 147.012C41.6289 147.221 41.7705 147.466 41.8508 147.75C41.8761 147.913 41.897 148.073 41.9142 148.236C41.9604 148.658 41.7113 149.092 41.4367 149.392C41.2888 149.551 41.1132 149.662 40.9106 149.73C40.7163 149.832 40.505 149.878 40.2808 149.869C39.8224 149.829 39.3874 149.732 39.0578 149.377C39.0196 149.335 38.9837 149.29 38.9458 149.246L38.6818 148.942C38.4811 148.739 38.3414 148.5 38.2656 148.225C38.2442 148.079 38.2254 147.936 38.2064 147.792C38.1872 147.359 38.3985 146.953 38.6818 146.644C38.9433 146.359 39.3869 146.184 39.7735 146.168ZM29.1093 141.718C31.3062 141.718 31.302 145.127 29.1093 145.127C26.914 145.127 26.9182 141.718 29.1093 141.718ZM139.577 136.938L139.646 136.939C140.01 136.941 140.35 137.032 140.665 137.216L141.074 137.531C141.324 137.785 141.497 138.08 141.594 138.423C141.617 138.602 141.641 138.782 141.666 138.96C141.677 139.239 141.617 139.499 141.491 139.739C141.411 139.989 141.271 140.206 141.074 140.39C140.891 140.587 140.675 140.727 140.424 140.807C140.183 140.934 139.923 140.993 139.646 140.982C139.281 140.98 138.941 140.889 138.626 140.705C138.489 140.6 138.354 140.494 138.216 140.39C137.986 140.156 137.821 139.886 137.722 139.577L137.699 139.499L137.625 138.96C137.614 138.683 137.673 138.423 137.8 138.182C137.88 137.93 138.02 137.715 138.216 137.531C138.4 137.334 138.618 137.195 138.867 137.115C139.088 136.998 139.324 136.939 139.577 136.938ZM129.681 130.556C129.877 130.55 130.059 130.59 130.23 130.679C130.406 130.736 130.558 130.835 130.687 130.973C130.959 131.19 131.126 131.626 131.126 131.979C131.126 132.332 130.959 132.767 130.687 132.985C130.509 133.16 130.3 133.283 130.059 133.35L129.681 133.401C129.313 133.418 128.939 133.226 128.677 132.985C128.625 132.936 128.574 132.888 128.521 132.841C128.283 132.621 128.179 132.293 128.164 131.979C128.158 131.812 128.194 131.655 128.27 131.51C128.318 131.357 128.403 131.228 128.521 131.116C128.574 131.07 128.625 131.021 128.677 130.973C128.963 130.708 129.296 130.575 129.681 130.556ZM192.381 119.188C193.769 117.496 192.961 116.292 190.875 116.711C187.281 117.197 183.899 119.469 180.734 121.098C177.279 122.923 173.719 124.429 170.196 126.144C171.649 127.037 172.731 128.435 173.557 130.03C175.206 128.777 177.314 128.178 179.371 128.1C183.104 124.524 189.286 123.705 192.381 119.188ZM28.3699 124.804C28.7463 124.805 29.099 124.894 29.4295 125.071L29.5 125.11L29.9521 125.461C30.1718 125.664 30.326 125.904 30.4169 126.181C30.5563 126.448 30.6197 126.737 30.6091 127.046C30.6197 127.354 30.5563 127.642 30.4169 127.908C30.326 128.187 30.1718 128.426 29.9521 128.629C29.8275 128.792 29.6669 128.918 29.4746 129.012C29.2948 129.085 29.1176 129.161 28.938 129.237C28.7373 129.301 28.5049 129.309 28.2873 129.32C27.8922 129.318 27.5248 129.218 27.1822 129.02L26.7387 128.678C26.5253 128.479 26.373 128.244 26.2843 127.971C26.1586 127.731 26.0949 127.475 26.0949 127.201L26.0965 127.126C26.0965 127.109 26.0965 127.09 26.0988 127.071C26.1239 126.872 26.1516 126.674 26.1786 126.475C26.2486 126.183 26.3817 125.928 26.5803 125.712C26.631 125.611 26.6986 125.528 26.7854 125.461C27.0641 125.182 27.3934 124.991 27.7739 124.883C27.9725 124.858 28.1711 124.831 28.3699 124.804ZM126.461 119.205C126.746 119.205 127.01 119.277 127.256 119.418C127.363 119.501 127.469 119.583 127.575 119.665C127.771 119.862 127.906 120.094 127.98 120.361L128.037 120.779C128.044 120.997 127.999 121.198 127.9 121.386C127.837 121.58 127.729 121.749 127.575 121.893C127.433 122.047 127.264 122.155 127.068 122.219C126.882 122.318 126.679 122.362 126.461 122.354C126.178 122.354 125.912 122.282 125.667 122.138C125.561 122.058 125.453 121.975 125.348 121.893C125.17 121.713 125.041 121.502 124.964 121.264L124.944 121.198L124.887 120.779C124.879 120.562 124.923 120.361 125.022 120.173C125.086 119.976 125.196 119.807 125.348 119.665C125.491 119.511 125.661 119.403 125.855 119.34C126.024 119.251 126.205 119.206 126.397 119.204L126.461 119.205ZM40.7185 116.915L40.7922 116.916C41.2126 116.918 41.6035 117.023 41.9668 117.235C42.1232 117.355 42.2797 117.476 42.4359 117.599C42.7253 117.888 42.9239 118.23 43.0361 118.625L43.1183 119.243C43.1309 119.564 43.0633 119.862 42.9176 120.139C42.8248 120.429 42.664 120.678 42.4359 120.889C42.2269 121.115 41.9774 121.276 41.688 121.369C41.4112 121.515 41.1133 121.583 40.7922 121.57C40.3718 121.57 39.9809 121.464 39.6175 121.253C39.4614 121.132 39.3051 121.01 39.1466 120.889C38.8591 120.597 38.6605 120.255 38.5485 119.862L38.4661 119.243C38.4535 118.924 38.5211 118.624 38.6668 118.347C38.7598 118.059 38.9204 117.808 39.1466 117.599C39.3579 117.37 39.607 117.209 39.8964 117.116C40.1519 116.982 40.4254 116.916 40.7185 116.915ZM118.947 111.104C119.139 111.053 119.331 111.053 119.523 111.104C119.81 111.116 120.079 111.203 120.328 111.361L120.766 111.7C120.772 111.706 120.778 111.712 120.785 111.721C121.049 111.987 121.232 112.302 121.334 112.663L121.41 113.232C121.42 113.526 121.359 113.8 121.226 114.054C121.147 114.298 121.016 114.51 120.835 114.694L120.766 114.762C120.569 114.973 120.339 115.123 120.07 115.21C119.901 115.31 119.717 115.358 119.523 115.358C119.236 115.423 118.947 115.411 118.659 115.32C118.488 115.246 118.315 115.174 118.142 115.102L118.086 115.071C117.434 114.714 117.03 113.965 117.03 113.232C117.03 112.498 117.434 111.748 118.086 111.391C118.106 111.383 118.122 111.372 118.142 111.361C118.391 111.203 118.659 111.116 118.947 111.104Z" fill="black"/>
<path fill-rule="evenodd" clip-rule="evenodd" d="M121.692 29.7322C114.275 10.1703 100.906 -4.15228 78.3662 4.84363C77.7196 4.40233 76.8759 4.28398 76.0674 4.80073C63.7893 12.5296 54.9476 24.9209 51.1159 38.8934C48.784 39.3379 46.5181 40.1131 44.4942 41.3844C40.0957 44.1474 37.1363 48.5439 34.3624 52.8259C33.5281 54.1132 34.3006 56.2444 35.8683 56.5367C36.5492 56.664 37.2241 56.7396 37.8951 56.7595C37.7317 57.354 37.5167 57.9285 37.2428 58.4554C36.2513 60.3626 38.1245 62.3876 39.88 61.8662C40.0748 61.9695 40.2789 62.0545 40.4903 62.1183C40.5143 63.1987 41.0682 64.645 42.1642 64.8633C43.9368 65.2446 46.2926 63.8845 45.8743 61.897C46.4098 61.9915 46.9434 62.0033 47.4635 61.9378C47.5216 62.9728 47.5035 64.0528 47.646 65.0075C48.1119 69.5067 52.5961 72.529 56.8724 71.1603C57.1347 72.5622 57.4427 74.532 58.82 75.2924C60.4303 79.821 63.2108 84.9891 67.765 87.0526C67.3596 88.0939 67.5795 89.3607 68.8005 90.0575C77.1366 94.822 87.1423 96.4342 96.5668 94.6629C100.333 94.438 104.003 93.5848 107.526 91.7669C110.094 90.4413 112.456 88.7579 114.761 87.0225C117.067 85.2865 119.533 83.5961 121.374 81.3421C123.373 78.894 124.304 76.0137 124.908 72.9481C127.676 59.033 126.72 45.3699 121.692 32.1144C115.468 15.7062 127.914 46.1413 121.692 29.7322Z" fill="#EDB98A"/>
<path fill-rule="evenodd" clip-rule="evenodd" d="M44.4724 40.5843C51.3956 36.4903 60.2248 37.5499 64.3841 43.8916C65.1021 44.9864 65.5979 46.1907 65.9481 47.5849L66.0046 47.8167L66.0611 48.0605C66.2425 48.8665 66.3613 49.625 66.5225 50.9147L66.7011 52.3781L66.7521 52.7768C66.9254 54.1013 67.0774 54.9378 67.3142 55.7907L67.3611 55.9561L67.6347 56.9006L66.602 57.2831C64.6233 57.9995 64.209 58.0635 63.0672 57.4652C62.1756 56.998 61.7102 56.369 61.0908 55.0943L61.0012 54.9078L60.8036 54.4919L60.6964 54.2729C60.2928 53.465 59.9696 52.6037 59.5131 52.2909C58.893 51.866 56.9383 51.6969 55.579 51.8643L55.5081 51.8733L55.4495 51.8856L55.3489 51.9083C53.063 52.4499 50.9795 54.2999 49.6053 56.2547C48.4987 57.8289 47.8629 59.8117 47.7849 61.8721L47.7805 62.0096L47.7535 63.0612L45.5376 63.0139L45.5593 62.6046L45.5261 62.6774C44.828 64.1529 43.074 65.1354 41.6065 64.1587L41.5543 64.1229L41.501 64.0846C40.2621 63.1706 40.1129 61.3199 41.1298 60.1961L41.1768 60.1455L41.2225 60.0989L41.2131 60.0945L41.2026 60.091L41.1961 60.0903C40.8497 60.1541 40.5454 60.3322 40.1338 60.7113L40.0279 60.8107L39.8153 61.0413L39.5953 61.2767L39.5008 61.374C39.4404 61.4351 39.3849 61.4888 39.3329 61.5363C39.2626 61.6005 39.1975 61.6545 39.1267 61.7036C39.0612 61.7491 38.9936 61.7889 38.9118 61.8245C38.7099 61.9123 38.4941 61.9539 38.2179 61.8858C37.8391 61.7927 37.6256 61.5632 37.4964 61.2928C37.4462 61.1877 37.4175 61.0911 37.3971 60.989C37.3759 60.8824 37.3654 60.7736 37.3599 60.6481C37.3563 60.5661 37.3551 60.4765 37.3558 60.3785L37.3583 60.2252L37.3635 60.0586L37.3691 59.9257L37.3942 59.4328C37.4839 57.8145 37.9082 56.2251 38.6346 54.7248L38.7082 54.5751L38.7356 54.5207L38.6597 54.6228C38.1643 55.2773 37.6859 55.731 37.0889 56.0306L37.0068 56.0705L36.9265 56.107C36.0981 56.4717 35.2638 56.3302 34.7598 55.6539C34.4111 55.1861 34.3082 54.5702 34.3797 53.9223C34.5184 52.6654 35.0142 51.5146 35.9851 49.8353L36.1211 49.6017L36.6541 48.6956C38.7077 45.2308 41.3475 42.4318 44.4724 40.5843Z" fill="#E8E1E1"/>
<path fill-rule="evenodd" clip-rule="evenodd" d="M85.8352 1.03166C89.631 0.763034 93.496 1.40448 97.1107 2.5519C102.876 4.38135 108.17 7.60994 112.52 11.8131C117.003 16.1447 120.319 21.4853 122.335 27.3839C124.766 34.4975 125.13 42.093 125.815 49.5188C126.16 53.2706 126.73 56.9652 127.322 60.6807L127.416 61.2676C127.994 64.8876 128.32 68.5488 127.521 72.1631C126.192 78.1701 122.209 83.2691 117.481 87.0369C107.769 94.7769 92.6506 99.4957 81.3427 92.3735C79.5933 91.2715 81.251 88.4535 82.9589 89.6018C84.1608 90.4102 85.4342 91.1189 86.7997 91.6082C92.5049 93.6521 98.7708 92.924 104.409 91.0227C109.966 89.1491 115.298 85.9833 119.398 81.7588C123.705 77.3215 126.091 71.8406 125.746 65.604C125.541 61.8934 124.698 58.2514 124.23 54.5709C123.815 51.3112 123.566 48.0338 123.28 44.7609L123.175 43.5836C122.567 36.9154 121.695 30.0642 118.669 24.0114C116.123 18.9191 112.395 14.3888 107.913 10.8901C103.221 7.22718 97.6161 4.66541 91.7354 3.70989C84.82 2.58635 78.2002 4.62948 72.4315 8.43294C67.3153 11.8061 62.9167 16.3138 59.544 21.4284C57.9084 23.9084 56.5151 26.5569 55.3119 29.2729C54.1781 31.8319 53.3964 34.514 52.4846 37.1516C53.2349 37.1292 53.9977 37.1582 54.7722 37.244C58.745 37.6853 62.4464 39.7493 64.8027 43.0039C67.6823 46.9809 66.904 51.8627 68.0287 56.3856C68.1158 56.7366 67.9678 57.0803 67.6678 57.2745C65.9624 58.3795 63.6801 58.4162 62.0296 57.172C60.597 56.0922 59.9245 54.14 60.5045 52.4342C60.5802 52.2118 60.9031 52.2511 60.9122 52.4895C61.0212 55.3924 63.7077 57.6279 66.3411 56.2465C65.2115 52.3465 65.806 47.9907 63.4956 44.468C59.4063 38.2331 50.9439 37.9755 45.0002 41.4902C41.8721 43.3397 39.3962 46.1206 37.5525 49.2312L37.0214 50.1342C36.3147 51.3407 35.5662 52.7056 35.4196 54.0343C35.3351 54.8011 35.6174 55.5216 36.4948 55.1352C37.2047 54.8228 37.7543 54.0939 38.1759 53.4672C38.895 52.3984 40.5475 53.3218 39.9535 54.46L39.9333 54.4972C39.0689 56.0325 38.5367 57.7244 38.4389 59.4872L38.4141 59.9753C38.3978 60.3311 38.3861 60.8368 38.4612 60.8552C38.5512 60.8774 39.1767 60.1535 39.2808 60.0533C39.7826 59.5702 40.2993 59.1754 40.9978 59.0467C41.9159 58.878 42.8423 60.0168 42.0453 60.7634L42.012 60.7935C41.3007 61.4134 41.3323 62.6496 42.1181 63.2293C43.227 64.0475 44.5923 62.712 44.7532 61.6125L44.7586 61.5719C44.9009 60.3839 46.5468 60.3418 46.6362 61.5719C46.8304 64.2413 43.6602 66.4786 41.2482 65.1319C40.2945 64.5997 39.6881 63.6252 39.4982 62.5807C39.1938 62.7419 38.8653 62.8537 38.5181 62.8846C37.3876 62.985 36.584 62.1882 36.4012 61.1188C36.1883 59.8728 36.3146 58.5388 36.642 57.2449C36.0281 57.3933 35.3823 57.3367 34.7332 56.9611C32.7694 55.8251 33.3333 53.2982 34.0748 51.5921C37.2403 44.3103 43.7985 37.7028 51.9236 37.1783C51.9681 35.8935 52.1418 34.6788 52.426 33.3923C55.205 20.8088 64.208 9.1566 75.9286 3.71053C79.0606 2.25517 82.3821 1.27619 85.8352 1.03166ZM55.0987 51.2983L55.2101 51.2732C56.4763 50.9997 59.8087 50.6784 59.407 52.8146C59.3881 52.9149 59.2424 52.9027 59.2164 52.8146C58.823 51.4714 56.1507 52.5455 55.3704 52.8689C54.2948 53.3144 53.2337 53.9717 52.3555 54.7357C50.4325 56.4088 49.1436 58.7666 48.9475 61.3273C48.7531 63.8675 49.4883 66.6113 51.3161 68.4488C52.2121 69.3493 53.3558 69.9608 54.6406 70.0058C55.7948 70.0459 57.0701 69.1452 58.1351 69.6727C58.3451 69.7767 58.5115 70.0622 58.4925 70.2972C58.4566 70.7421 58.258 71.0885 57.9625 71.3572C59.7456 74.6147 61.2049 78.0627 63.4795 81.025C64.6209 82.5112 65.9143 83.8875 67.3788 85.0588C68.075 85.6157 68.8318 86.1048 69.6123 86.5344C70.5268 87.0385 71.3182 87.3538 71.971 88.2077C72.5275 88.9358 71.9707 90.3436 71.0532 90.4691C68.8925 90.7642 66.7928 89.0129 65.2065 87.7011C63.6218 86.3903 62.2521 84.7735 61.1202 83.0579C58.9466 79.7636 57.4597 75.8773 56.8651 71.9456C56.1749 72.1649 55.3978 72.2319 54.8132 72.2332C53.2578 72.2368 51.7725 71.6759 50.5502 70.728C46.0753 67.2582 45.578 60.1342 48.7359 55.6418C50.247 53.4921 52.5433 51.9038 55.0987 51.2983ZM55.1267 59.5609C56.1644 59.4696 57.2012 59.6338 58.1765 59.9884L58.5785 60.1345C59.4278 60.4458 60.3318 60.8119 60.9452 61.4501C61.8823 62.4257 60.9492 64.1161 59.6143 63.7422C58.1383 63.3288 56.9387 62.0827 55.4632 61.56C54.1443 61.0929 52.6504 61.1591 51.4799 61.9635C51.3254 62.0698 51.1221 61.8601 51.2231 61.7058C52.1185 60.339 53.5321 59.701 55.1267 59.5609Z" fill="black"/>
<path fill-rule="evenodd" clip-rule="evenodd" d="M97.8486 69.9328C99.0304 67.988 101.55 72.7522 101.817 73.5714C102.054 74.2971 102.211 75.0405 102.29 75.7925C103.207 75.9979 104.158 75.9983 105.097 75.8183C106.492 75.5505 107.345 74.8 108.558 74.1557C109.395 73.7104 110.451 74.2325 110.887 74.971C111.399 75.8402 111.073 76.7423 110.399 77.3903C109.121 78.619 106.606 78.9013 104.938 78.575C103.982 78.3881 103.107 78.0296 102.333 77.5085C102.328 77.6057 102.324 77.703 102.317 77.8001L102.302 77.9685C102.174 79.3313 101.799 81.0449 100.741 81.9316C99.0059 83.3862 96.8641 80.5888 98.5504 79.1358L98.6027 79.0922C99.6508 78.245 99.8794 75.9719 99.823 74.7199C99.786 73.9028 99.6372 73.0752 99.3793 72.2969L99.3263 72.1419C99.2486 71.9221 98.4022 69.8366 98.0963 70.1022L98.0817 70.1171C97.9555 70.2678 97.7517 70.0923 97.8486 69.9328ZM107.285 58.9585C108.88 59.9286 111.311 62.1907 109.595 64.5957C107.574 66.7163 104.666 64.2849 103.233 63.1853C101.904 62.333 100.41 64.5249 101.643 65.52C112.001 73.191 116.204 59.2121 108.092 57.8179C107.198 57.6642 106.867 58.6584 107.285 58.9585ZM90.249 49.9915C91.8082 49.7149 93.4054 50.1027 94.6956 51.0153L94.7934 51.0857C96.0364 51.9951 97.4271 53.5919 96.7138 55.1595C96.4275 55.7889 95.5702 55.8876 95.0262 55.6023C94.1205 55.1271 93.9563 53.9582 93.1482 53.3112C92.4855 52.7809 91.5931 52.4593 90.7396 52.5368C88.7344 52.719 87.5011 54.6975 86.8782 56.4024C86.7986 56.6205 86.4785 56.7053 86.3535 56.4711C84.8849 53.7253 87.4844 50.4823 90.249 49.9915ZM115.223 48.9553C118.21 48.7091 121.706 51.8066 120.919 54.9604C120.542 56.4737 118.298 56.4303 117.899 54.9604C117.68 54.1515 117.702 53.4359 117.12 52.7642C116.639 52.2097 115.957 51.8876 115.223 51.937C114.414 51.9915 113.668 52.3959 113.102 52.9642C112.59 53.4773 112.284 54.2283 111.753 54.6825C111.623 54.7941 111.448 54.8012 111.319 54.6825C110.406 53.8406 110.954 52.0881 111.533 51.2093C112.361 49.9518 113.71 49.0802 115.223 48.9553ZM84.5615 44.3981C86.4775 42.7014 89.959 41.0628 92.5426 41.8978C94.028 42.3778 94.6755 44.7722 93.0173 45.5312C91.0971 46.41 88.8832 46.0523 86.9288 46.9633C86.108 47.346 85.336 47.8243 84.7645 48.5258C84.3143 49.0787 83.8563 49.8061 83.2052 50.1249C83.034 50.2088 82.8023 50.2109 82.6652 50.0553C81.2378 48.4402 83.3152 45.5016 84.5615 44.3981ZM111.93 41.8136C113.114 41.4812 114.428 41.4879 115.631 41.6967C116.833 41.9055 118.054 42.4041 119.036 43.1314L119.15 43.2165C120.222 44.0245 121.501 45.2 121.432 46.6313C121.375 47.8265 120.118 48.6349 119.033 48.0085C118.148 47.4977 117.732 46.4743 116.983 45.7929C116.365 45.2305 115.639 44.7871 114.865 44.4764C114.005 44.1313 113.143 43.9696 112.22 43.9542C111.509 43.9423 110.794 44.1757 110.096 44.2503C110.153 44.3682 109.602 44.3133 109.286 44.2086C109.052 44.1089 109.051 43.8128 109.132 43.6207C109.534 42.6689 110.998 42.0748 111.93 41.8136Z" fill="black"/>
<path fill-rule="evenodd" clip-rule="evenodd" d="M116.014 84.1844C115.276 83.943 114.552 83.6621 113.825 83.3914C110.104 81.522 105.61 81.183 101.709 82.7573C99.7941 83.53 98.0084 84.9184 96.087 85.8283C95.6306 85.9986 95.1705 86.1533 94.7053 86.2831C94.4201 86.1838 94.1348 86.0781 93.8517 85.9724C91.8136 85.2039 89.8966 84.256 88.0353 83.2132C87.8367 82.9336 87.6308 82.6618 87.4094 82.4008C88.7562 82.2095 90.0749 81.8917 91.2679 81.5636C94.9313 80.5597 98.3834 78.9239 102.034 77.8756C105.433 76.897 109.122 76.3623 112.536 77.5776C114.157 78.1546 115.583 79.1648 117.159 79.8454C117.974 80.1962 118.952 80.5407 119.905 80.5914C119.29 82.0645 118.513 83.4404 117.45 84.586C116.964 84.4824 116.483 84.3366 116.014 84.1844ZM123.941 72.6464C123.614 72.9175 122.268 73.7925 121.832 74.3141C121.719 74.2712 121.607 74.2273 121.495 74.182C121.303 73.9462 121.02 73.8426 120.732 73.8489C118.719 72.9122 116.926 71.5885 115.327 69.9288C114.19 68.7516 113.026 67.5194 111.507 66.8368C109.718 66.0294 107.958 66.4014 106.078 66.524C104.077 66.6571 102.102 66.0886 100.103 66.3612C98.6412 66.562 97.2722 67.1813 96.0891 68.0541C93.6743 69.8358 92.0095 72.3382 89.9686 74.4961C87.6532 76.9435 84.8053 78.5075 81.6384 79.3064C81.6003 79.2811 81.5602 79.2557 81.5201 79.2324C79.1855 77.1189 77.0771 74.7328 75.2116 72.1903C73.3905 69.7069 68.5884 58.5286 67.4285 57.5479C66.9468 57.14 66.4186 56.9646 65.9137 56.9794C64.9989 57.0005 64.1539 57.6367 63.7757 58.6385C63.1334 60.342 63.4546 62.5442 63.5053 64.3259C63.5686 66.507 63.7123 68.6861 63.9405 70.8566C64.1665 73.0018 64.4665 75.1407 64.8405 77.2648C65.0285 78.3384 65.2377 79.41 65.4679 80.4773C65.5398 80.8133 65.6306 81.1135 65.7405 81.3925C65.8525 81.9187 65.9729 82.4429 66.1017 82.9628C66.9426 86.3676 68.2694 89.7767 70.8025 92.2897C73.4391 94.9083 77.0222 96.6477 80.3496 98.2033C83.5186 99.6848 86.8398 101.002 90.2475 102.033C93.2074 103.375 96.3764 104.436 99.5581 104.994C103.061 105.609 106.743 105.647 110.126 104.43C111.788 103.832 113.36 102.997 114.786 101.957C116.808 100.906 118.627 99.4629 120.117 97.5523C122.784 94.1281 124.058 89.9728 124.615 85.688C124.757 84.5914 125.293 80.3882 125.336 79.7338C125.472 77.6204 125.608 75.5071 125.744 73.3937C125.808 72.3963 124.585 72.1116 123.941 72.6464Z" fill="black"/>
<path fill-rule="evenodd" clip-rule="evenodd" d="M115.211 54.2555C113.345 52.3174 111.471 50.3512 109.083 49.0119C109.188 48.4379 108.956 47.7783 108.274 47.5035C101.663 45.0307 97.4604 52.1477 92.6726 55.3275C91.5538 55.929 90.4318 56.6229 89.1825 56.8579C86.5262 57.6337 84.2722 59.2402 82.6705 61.351C81.805 62.1826 80.2793 63.5704 79.8555 64.7011C79.5961 65.1627 56.3456 54.0968 51.0542 52.8655C48.5484 52.027 47.1992 54.3968 50.3752 55.613C58.7211 58.8089 75.0619 65.9627 78.7101 68.0241C78.0091 70.1882 77.7997 73.0564 78.4824 75.1965C77.9086 78.5276 79.0225 81.5793 81.2244 83.9709C81.6909 84.65 82.4041 85.1395 82.8683 85.7287C84.5545 90.1379 88.6007 92.2706 93.3357 94.378C100.87 97.7315 107.438 98.4034 111.567 96.9345C122.285 92.8411 128.506 80.813 126.502 69.8536C124.616 62.1332 125.006 55.3609 115.211 54.2555Z" fill="#9DDADB"/>
<path fill-rule="evenodd" clip-rule="evenodd" d="M91.9598 54.2052C98.4071 50.6051 99.4958 43.2674 108.846 46.9975C111.768 48.1781 112.794 49.9258 114.743 52.1088C115.752 53.0265 117.023 53.4828 118.277 53.9715C123.046 55.5553 125.843 60.0552 126.909 64.782C129.7 74.5936 126.778 86.0876 119.646 93.2275C119.746 93.4084 119.727 93.6691 119.509 93.7893C119.108 94.0103 118.71 94.2369 118.313 94.4668C115.819 96.6227 110.758 99.4576 107.006 99.4576C98.6402 99.4576 90.559 96.0625 85.6205 91.7049C79.2997 86.605 75.3134 75.9641 77.3643 68.3059C65.611 62.7702 54.7235 58.5662 50.1726 56.7428C49.0495 55.5645 49.0393 55.1311 50.1419 55.4427C60.827 58.4624 81.8672 68.2837 82.1203 68.294C82.2704 68.3002 82.8222 67.094 82.9309 66.5758C82.4388 66.5219 53.4168 53.9976 49.8023 52.8356L49.6111 52.7746C47.892 52.2314 48.3215 51.8087 49.6426 51.8856C52.3212 52.042 75.031 62.5876 79.4502 63.6443C81.4246 59.206 87.0329 56.902 91.9598 54.2052ZM106.038 47.9131C102.449 46.8564 99.8098 49.4627 97.89 52.1944C93.3613 57.8122 85.1006 57.9898 81.6894 64.6646L81.5876 64.8689L82.9379 65.2747L82.9748 65.2137C83.0812 65.048 83.3982 64.6273 83.6669 65.0103C85.0632 66.5116 82.8771 71.4958 81.7291 69.3005L81.6946 69.2318L79.8197 68.7155C76.4329 82.446 89.3564 94.8085 102.359 96.9022C102.359 96.9022 107.784 96.9891 109.958 96.4638C111.561 96.0766 112.946 95.3276 114.426 94.5843C115.897 93.8455 117.111 92.7019 118.536 91.9205C122.606 87.8831 125.282 82.3405 126.01 76.5912C126.723 69.6972 126.056 60.9196 120.075 56.5476C118.106 55.2985 115.679 54.9629 113.879 53.4184C111.731 51.0436 109.217 48.6287 106.038 47.9131ZM99.5829 80.166C99.5226 80.0671 99.6617 79.9722 99.7405 80.046C100.999 81.2247 102.216 82.4513 103.391 83.7144C103.453 83.6947 103.523 83.6759 103.614 83.6537C104.046 83.5482 104.419 83.9992 104.21 84.3966L104.16 84.4857C103.846 85.0204 103.124 85.4912 102.694 84.8466C101.6 83.3267 100.559 81.7644 99.5829 80.166ZM84.0288 82.9924L84.0276 82.9459C84.0036 82.4867 83.6306 81.3284 84.3889 81.5059C85.2664 82.0166 85.5911 83.3515 85.6404 84.2996C85.6945 85.3403 83.9695 85.3534 84.0141 84.2996C84.0327 83.8633 84.0671 83.428 84.0288 82.9924ZM120.463 79.7897C120.585 79.7667 120.65 79.9193 120.544 79.9888C119.153 80.7704 119.27 82.346 119.045 83.6591C117.449 84.7239 117.611 80.1619 120.463 79.7897ZM80.5579 74.2148C93.9501 75.5658 108.356 79.5651 122.053 75.4985C122.883 75.2732 123.212 76.5572 122.385 76.7791C108.579 80.2797 93.9188 78.1886 80.5579 74.2148ZM116.879 68.6808C117.293 68.5844 117.684 70.6309 118.323 71.0117C118.641 71.6517 121.163 72.2152 120.1 72.9999C118.287 73.3789 116.298 70.3124 116.879 68.6808ZM105.114 69.1653C105.425 69.1591 105.638 69.3977 105.74 69.6691C106.018 70.4661 104.829 70.3393 104.386 70.6043C102.512 71.8953 100.348 72.9364 98.0453 72.9847C97.9014 72.9875 97.9001 72.7971 98.0177 72.751L98.4192 72.5938C99.6858 72.0952 100.906 71.5843 102.072 70.8463C103.015 70.2495 103.922 69.1386 105.114 69.1653ZM98.0388 55.1365C97.722 52.8539 104.93 47.0906 107.14 49.5682C107.711 50.2061 106.961 51.1532 106.208 50.7505C103.128 49.9423 100.183 53.3005 98.0388 55.1365Z" fill="black"/>
</svg>
